# xmcd CD database file
#
# Track frame offsets:
#	150
#	21154
#	43118
#	63893
#	78804
#	90651
#	103021
#	125704
#	139298
#	154967
#	174760
#	190500
#	200775
#	219855
#	239652
#
# Disc length: 3418 seconds
#
# Revision: 0
# Processed by: cddbd v1.5.2PL0 Copyright (c) Steve Scherf et al.
# Submitted via: CDex 1.70beta2
#
DISCID=cc0d580f
DTITLE=JIMMY ROGERS and LEFT HAND FRANK - The Dirty Dozens(30th Anniversary Re-Issue)
DYEAR=2009
DGENRE=Blues
TTITLE0=Take A Walk
TTITLE1=You're Sweet
TTITLE2=Mean Red Spider
TTITLE3=Fishing In My Pond
TTITLE4=Crazy Woman Blues
TTITLE5=Information Please
TTITLE6=Dirty Dozens
TTITLE7=Oh Baby
TTITLE8=Honky Tonk
TTITLE9=One Room Country Shack
TTITLE10=Cleo's Gone
TTITLE11=Baby Please
TTITLE12=Rock This House
TTITLE13=Chicago Bound
TTITLE14=Blue And Lonesome
EXTD=YEAR: 2009
EXTT0=
EXTT1=
EXTT2=
EXTT3=
EXTT4=
EXTT5=
EXTT6=
EXTT7=
EXTT8=
EXTT9=
EXTT10=
EXTT11=
EXTT12=
EXTT13=
EXTT14=
PLAYORDER=
